<svg xmlns="http://www.w3.org/2000/svg" xmlns:xlink="http://www.w3.org/1999/xlink" width="140" zoomAndPan="magnify" viewBox="0 0 104.88 30.000001" height="40" preserveAspectRatio="xMidYMid meet" version="1.0"><defs><g/><clipPath id="3169fc756b"><path d="M 7 5.464844 L 13 5.464844 L 13 9 L 7 9 Z M 7 5.464844 " clip-rule="nonzero"/></clipPath><clipPath id="e7acb2289f"><path d="M 7 18 L 13 18 L 13 21.429688 L 7 21.429688 Z M 7 18 " clip-rule="nonzero"/></clipPath></defs><g fill="#ffffff" fill-opacity="1"><g transform="translate(18.058667, 19.063456)"><g><path d="M 0.953125 -13.203125 L 5.6875 -13.203125 C 6.945312 -13.203125 7.976562 -12.863281 8.78125 -12.1875 C 9.582031 -11.507812 9.984375 -10.539062 9.984375 -9.28125 C 9.984375 -8.3125 9.738281 -7.5 9.25 -6.84375 C 8.769531 -6.1875 8.113281 -5.722656 7.28125 -5.453125 L 11.828125 0 L 8 0 L 3.96875 -5.21875 L 3.96875 0 L 0.953125 0 Z M 3.96875 -7.34375 L 4.3125 -7.34375 C 4.59375 -7.34375 4.828125 -7.347656 5.015625 -7.359375 C 5.210938 -7.367188 5.429688 -7.40625 5.671875 -7.46875 C 5.921875 -7.53125 6.117188 -7.617188 6.265625 -7.734375 C 6.421875 -7.859375 6.550781 -8.03125 6.65625 -8.25 C 6.757812 -8.476562 6.8125 -8.75 6.8125 -9.0625 C 6.8125 -9.382812 6.757812 -9.65625 6.65625 -9.875 C 6.550781 -10.101562 6.421875 -10.273438 6.265625 -10.390625 C 6.117188 -10.515625 5.921875 -10.609375 5.671875 -10.671875 C 5.429688 -10.734375 5.210938 -10.769531 5.015625 -10.78125 C 4.828125 -10.789062 4.59375 -10.796875 4.3125 -10.796875 L 3.96875 -10.796875 Z M 3.96875 -7.34375 "/></g></g></g><g fill="#ffffff" fill-opacity="1"><g transform="translate(29.514653, 19.063456)"><g><path d="M 0.953125 -13.203125 L 5.0625 -13.203125 C 6.289062 -13.203125 7.273438 -12.9375 8.015625 -12.40625 C 8.753906 -11.875 9.125 -11.019531 9.125 -9.84375 C 9.125 -8.519531 8.570312 -7.578125 7.46875 -7.015625 C 9.34375 -6.679688 10.28125 -5.570312 10.28125 -3.6875 C 10.28125 -2.570312 9.894531 -1.675781 9.125 -1 C 8.363281 -0.332031 7.3125 0 5.96875 0 L 0.953125 0 Z M 3.96875 -8.03125 L 4.203125 -8.03125 C 4.878906 -8.03125 5.378906 -8.144531 5.703125 -8.375 C 6.035156 -8.613281 6.203125 -9 6.203125 -9.53125 C 6.203125 -10.425781 5.535156 -10.875 4.203125 -10.875 L 3.96875 -10.875 Z M 3.96875 -2.3125 L 4.90625 -2.3125 C 6.382812 -2.3125 7.125 -2.804688 7.125 -3.796875 C 7.125 -4.378906 6.9375 -4.796875 6.5625 -5.046875 C 6.195312 -5.304688 5.644531 -5.4375 4.90625 -5.4375 L 3.96875 -5.4375 Z M 3.96875 -2.3125 "/></g></g></g><g fill="#ffffff" fill-opacity="1"><g transform="translate(40.170639, 19.063456)"><g><path d="M 3.96875 -13.203125 L 3.96875 0 L 0.953125 0 L 0.953125 -13.203125 Z M 3.96875 -13.203125 "/></g></g></g><g fill="#ffffff" fill-opacity="1"><g transform="translate(45.098634, 19.063456)"><g><path d="M 0.125 -10.5625 L 0.125 -13.203125 L 9.40625 -13.203125 L 9.40625 -10.5625 L 6.265625 -10.5625 L 6.265625 0 L 3.265625 0 L 3.265625 -10.5625 Z M 0.125 -10.5625 "/></g></g></g><g fill="#ffffff" fill-opacity="1"><g transform="translate(54.634624, 19.063456)"><g><path d="M -0.484375 -13.203125 L 3.140625 -13.203125 L 5.890625 -8.96875 L 8.640625 -13.203125 L 12.25 -13.203125 L 7.390625 -5.921875 L 7.390625 0 L 4.390625 0 L 4.390625 -5.921875 Z M -0.484375 -13.203125 "/></g></g></g><g fill="#ffffff" fill-opacity="1"><g transform="translate(66.41061, 19.063456)"><g><path d="M 3.96875 -13.203125 L 3.96875 0 L 0.953125 0 L 0.953125 -13.203125 Z M 3.96875 -13.203125 "/></g></g></g><g fill="#ffffff" fill-opacity="1"><g transform="translate(71.338606, 19.063456)"><g><path d="M 8.515625 -13.203125 L 8.515625 -10.5625 L 3.96875 -10.5625 L 3.96875 -7.9375 L 8.3125 -7.9375 L 8.3125 -5.296875 L 3.96875 -5.296875 L 3.96875 -2.640625 L 8.515625 -2.640625 L 8.515625 0 L 0.953125 0 L 0.953125 -13.203125 Z M 8.515625 -13.203125 "/></g></g></g><g fill="#ffffff" fill-opacity="1"><g transform="translate(80.618596, 19.063456)"><g><path d="M 3.96875 -13.203125 L 3.96875 -2.640625 L 8.515625 -2.640625 L 8.515625 0 L 0.953125 0 L 0.953125 -13.203125 Z M 3.96875 -13.203125 "/></g></g></g><g fill="#ffffff" fill-opacity="1"><g transform="translate(89.658586, 19.063456)"><g><path d="M 0.953125 -13.203125 L 4.78125 -13.203125 C 6.613281 -13.203125 8.179688 -12.570312 9.484375 -11.3125 C 10.785156 -10.0625 11.4375 -8.492188 11.4375 -6.609375 C 11.4375 -4.710938 10.785156 -3.132812 9.484375 -1.875 C 8.191406 -0.625 6.625 0 4.78125 0 L 0.953125 0 Z M 3.96875 -2.6875 L 4.4375 -2.6875 C 5.53125 -2.6875 6.425781 -3.054688 7.125 -3.796875 C 7.820312 -4.535156 8.175781 -5.46875 8.1875 -6.59375 C 8.1875 -7.707031 7.835938 -8.640625 7.140625 -9.390625 C 6.441406 -10.140625 5.539062 -10.515625 4.4375 -10.515625 L 3.96875 -10.515625 Z M 3.96875 -2.6875 "/></g></g></g><g clip-path="url(#3169fc756b)"><path fill="#ff2670" d="M 10 8.847656 C 11.582031 8.847656 12.867188 8.101562 12.867188 7.179688 C 12.867188 6.257812 11.582031 5.511719 10 5.511719 C 8.414062 5.511719 7.132812 6.257812 7.132812 7.179688 C 7.132812 8.101562 8.414062 8.847656 10 8.847656 Z M 10 8.847656 " fill-opacity="1" fill-rule="nonzero"/></g><g clip-path="url(#e7acb2289f)"><path fill="#ff2670" d="M 10 21.414062 C 11.582031 21.414062 12.867188 20.667969 12.867188 19.746094 C 12.867188 18.824219 11.582031 18.078125 10 18.078125 C 8.414062 18.078125 7.132812 18.824219 7.132812 19.746094 C 7.132812 20.667969 8.414062 21.414062 10 21.414062 Z M 10 21.414062 " fill-opacity="1" fill-rule="nonzero"/></g><path fill="#ff2670" d="M 6.003906 11.15625 C 6.792969 9.785156 6.789062 8.300781 5.992188 7.839844 C 5.195312 7.378906 3.90625 8.117188 3.113281 9.488281 C 2.320312 10.859375 2.324219 12.34375 3.125 12.804688 C 3.921875 13.265625 5.210938 12.527344 6.003906 11.15625 Z M 6.003906 11.15625 " fill-opacity="1" fill-rule="nonzero"/><path fill="#ff2670" d="M 16.886719 17.4375 C 17.679688 16.066406 17.671875 14.582031 16.875 14.121094 C 16.078125 13.660156 14.789062 14.398438 13.996094 15.769531 C 13.203125 17.140625 13.210938 18.625 14.007812 19.085938 C 14.804688 19.546875 16.09375 18.808594 16.886719 17.4375 Z M 16.886719 17.4375 " fill-opacity="1" fill-rule="nonzero"/><path fill="#ff2670" d="M 5.992188 19.085938 C 6.789062 18.628906 6.792969 17.140625 6.003906 15.769531 C 5.210938 14.398438 3.921875 13.660156 3.125 14.121094 C 2.324219 14.582031 2.320312 16.066406 3.113281 17.4375 C 3.90625 18.808594 5.195312 19.546875 5.992188 19.085938 Z M 5.992188 19.085938 " fill-opacity="1" fill-rule="nonzero"/><path fill="#ff2670" d="M 16.875 12.804688 C 17.671875 12.34375 17.679688 10.859375 16.886719 9.488281 C 16.09375 8.117188 14.804688 7.378906 14.007812 7.839844 C 13.210938 8.300781 13.203125 9.785156 13.996094 11.15625 C 14.789062 12.527344 16.078125 13.265625 16.875 12.804688 Z M 16.875 12.804688 " fill-opacity="1" fill-rule="nonzero"/></svg>